<svg width="360" height="285" viewBox="0 0 360 285" fill="none" xmlns="http://www.w3.org/2000/svg">
<path d="M224.334 64.2107C221.567 64.2086 218.837 64.8487 216.359 66.0804C213.881 67.3122 211.723 69.102 210.055 71.3091C208.264 70.5386 206.31 70.2248 204.368 70.3959C202.426 70.5669 200.556 71.2174 198.928 72.2889C197.299 73.3605 195.962 74.8196 195.037 76.5352C194.112 78.2508 193.627 80.1693 193.627 82.1184H242.247C242.247 79.7667 241.784 77.438 240.883 75.2654C239.983 73.0927 238.664 71.1186 237 69.4557C235.337 67.7928 233.362 66.4738 231.189 65.5738C229.016 64.6739 226.687 64.2107 224.334 64.2107Z" fill="#E6E6E6"/>
<path d="M291.498 51.8182H78.7069C75.8613 51.8223 73.1333 52.9542 71.1211 54.9658C69.1089 56.9774 67.9767 59.7047 67.9727 62.5495V222.257C67.9767 225.102 69.1089 227.829 71.1211 229.84C73.1333 231.852 75.8613 232.984 78.7069 232.988H291.498C294.344 232.984 297.072 231.852 299.084 229.84C301.096 227.829 302.229 225.102 302.233 222.257V62.5495C302.229 59.7047 301.096 56.9774 299.084 54.9658C297.072 52.9542 294.344 51.8223 291.498 51.8182V51.8182ZM300.97 222.257C300.967 224.767 299.968 227.174 298.192 228.949C296.417 230.724 294.009 231.722 291.498 231.726H78.7069C76.1959 231.722 73.7886 230.724 72.013 228.949C70.2374 227.174 69.2386 224.767 69.2355 222.257V62.5495C69.2386 60.0392 70.2374 57.6326 72.013 55.8575C73.7886 54.0824 76.1959 53.0838 78.7069 53.0807H291.498C294.009 53.0838 296.417 54.0824 298.192 55.8575C299.968 57.6326 300.967 60.0392 300.97 62.5495V222.257Z" fill="#3F3D56"/>
<path d="M103.648 166.706C129.977 166.706 151.321 145.368 151.321 119.047C151.321 92.725 129.977 71.3871 103.648 71.3871C77.3192 71.3871 55.9753 92.725 55.9753 119.047C55.9753 145.368 77.3192 166.706 103.648 166.706Z" fill="#6C63FF"/>
<path d="M302.233 186.951V200.163H67.9727V186.888L69.2355 185.07L143.504 78.1541C143.841 77.669 144.29 77.2727 144.814 76.999C145.337 76.7252 145.919 76.5823 146.51 76.5823C147.101 76.5823 147.682 76.7252 148.206 76.999C148.729 77.2727 149.179 77.669 149.515 78.1541L199.322 149.846L234.777 99.2569C235.115 98.7745 235.563 98.3805 236.085 98.1085C236.608 97.8366 237.188 97.6945 237.776 97.6945C238.365 97.6945 238.945 97.8366 239.467 98.1085C239.99 98.3805 240.438 98.7745 240.776 99.2569L300.97 185.145L302.233 186.951Z" fill="#3F3D56"/>
<path d="M119.434 215.313H82.1795C82.0124 215.312 81.8523 215.246 81.7343 215.127C81.6163 215.009 81.55 214.849 81.55 214.682C81.55 214.514 81.6163 214.354 81.7343 214.236C81.8523 214.118 82.0124 214.051 82.1795 214.05H119.434C119.601 214.05 119.762 214.117 119.88 214.235C119.999 214.354 120.065 214.514 120.065 214.682C120.065 214.849 119.999 215.01 119.88 215.128C119.762 215.246 119.601 215.313 119.434 215.313V215.313Z" fill="#3F3D56"/>
<path d="M175.631 215.313H138.377C138.294 215.313 138.211 215.297 138.135 215.265C138.058 215.234 137.988 215.187 137.929 215.129C137.87 215.07 137.824 215 137.792 214.924C137.76 214.847 137.743 214.765 137.743 214.682C137.743 214.599 137.76 214.516 137.792 214.44C137.824 214.363 137.87 214.293 137.929 214.235C137.988 214.176 138.058 214.129 138.135 214.098C138.211 214.066 138.294 214.05 138.377 214.05H175.631C175.799 214.05 175.959 214.117 176.078 214.235C176.196 214.354 176.262 214.514 176.262 214.682C176.262 214.849 176.196 215.01 176.078 215.128C175.959 215.246 175.799 215.313 175.631 215.313V215.313Z" fill="#3F3D56"/>
<path d="M231.828 215.313H194.574C194.407 215.312 194.247 215.246 194.129 215.127C194.011 215.009 193.944 214.849 193.944 214.682C193.944 214.514 194.011 214.354 194.129 214.236C194.247 214.118 194.407 214.051 194.574 214.05H231.828C231.996 214.05 232.156 214.117 232.275 214.235C232.393 214.354 232.46 214.514 232.46 214.682C232.46 214.849 232.393 215.01 232.275 215.128C232.156 215.246 231.996 215.313 231.828 215.313V215.313Z" fill="#3F3D56"/>
<path d="M288.026 215.313H250.771C250.604 215.312 250.444 215.246 250.326 215.127C250.208 215.009 250.142 214.849 250.142 214.682C250.142 214.514 250.208 214.354 250.326 214.236C250.444 214.118 250.604 214.051 250.771 214.05H288.026C288.193 214.05 288.354 214.117 288.472 214.235C288.591 214.354 288.657 214.514 288.657 214.682C288.657 214.849 288.591 215.01 288.472 215.128C288.354 215.246 288.193 215.313 288.026 215.313V215.313Z" fill="#3F3D56"/>
<path d="M186.05 94.1121C182.635 94.1095 179.267 94.8992 176.21 96.4189C173.153 97.9386 170.491 100.147 168.432 102.87C166.223 101.919 163.812 101.532 161.416 101.743C159.019 101.954 156.713 102.757 154.704 104.079C152.695 105.401 151.045 107.201 149.904 109.318C148.762 111.434 148.164 113.801 148.164 116.206H208.15C208.15 113.305 207.578 110.432 206.467 107.751C205.357 105.07 203.729 102.635 201.677 100.583C199.624 98.5316 197.188 96.9042 194.507 95.7939C191.826 94.6835 188.952 94.1121 186.05 94.1121V94.1121Z" fill="#CCCCCC"/>
</svg>
